# xmcd CD database file
#
# Track frame offsets:
#	150
#	20377
#	47201
#	65953
#	85980
#	109156
#	130235
#	141391
#	159465
#	181975
#	193039
#
# Disc length: 2885 seconds
#
# Revision: 9
# Processed by: cddbd v1.5.1PL0 Copyright (c) Steve Scherf et al.
# Submitted via: CDex 1.51
#
DISCID=a10b430b
DTITLE=キリンジ - 47' 45"
DYEAR=1999
DGENRE=JPop
TTITLE0=Drive me crazy
TTITLE1=耳をうずめて
TTITLE2=唐変木のためのガイダンス
TTITLE3=恋の祭典
TTITLE4=BBQパーティー
TTITLE5=ふたご座ラプソディ
TTITLE6=くよくよするなよ
TTITLE7=銀砂子のピンボール
TTITLE8=ダンボールの宮殿（パレス）
TTITLE9=V.I.P.
TTITLE10=口実
EXTD=YEAR: 1999
EXTT0=
EXTT1=
EXTT2=
EXTT3=
EXTT4=
EXTT5=
EXTT6=
EXTT7=
EXTT8=
EXTT9=
EXTT10=
PLAYORDER=
